<?xml version="1.0" encoding="utf-8"?>
<!DOCTYPE svg PUBLIC "-//W3C//DTD SVG 1.1//EN" "http://www.w3.org/Graphics/SVG/1.1/DTD/svg11.dtd">
<svg version="1.1" xmlns="http://www.w3.org/2000/svg" xmlns:xlink="http://www.w3.org/1999/xlink" x="0px" y="0px"
	 width="338.482px" height="324.976px" viewBox="0 0 338.482 324.976" enable-background="new 0 0 338.482 324.976"
	 xml:space="preserve">
<g id="Layer_1">
</g>
<g id="Layer_2">
	<g>
		<g>
			<path fill="#3F7A13" d="M193.452,123.667c16.667-12.333,98.582-68.554,106.202-71.131c5.279-2.2,11.292-2.829,17,1.333
				c7.333,8,25,36.333,21.333,65.667c-8.667,5.667-68.333,42-68.333,42s4.666,6,14.333,12.333
				c9.667,6.333,35.333,21.999,39.333,29.999s7.668,17,4.334,25.667s-6.667,19.667-6.667,19.667s-0.334,9.333-17.667,8.333
				s-45-7.667-61-22.667c-3.666,4-4.334,13.484,1,22.742s22,33.258,23.667,34.925c0,3.333-2.333,11.333-1,16.333
				c-4.333,3.667-24,14.334-31,15.667s-15.667,0-24.667-9s-44.333-61-49.667-75c-4.667,4-54.333,54-76,59
				c-9.333,2-18.667,5.333-43.333-11c-1.667-3.666-2-19.666-1.333-22.666s50.333-56.668,59.333-62.334
				c-7.333-6.666-14.667-15.666-42.333-18.666s-39.333-5-52.667-15c0.333-9,8-33,26.667-44.667s36.667-8.165,43.667-8.165
				s39.333-0.169,39.333-0.169S85.653,80.202,76.32,61.536c-4-7.667-7.667-17.667,3.333-28.333s29.333-26.666,39.333-24.333
				s19.667,10,28,24.667S187.452,109.334,193.452,123.667z"/>
		</g>
		<g>
			<path fill="#79DF2F" d="M189.132,115.027c16.667-12.333,98.582-68.554,106.202-71.131c5.279-2.2,11.292-2.829,17,1.333
				c7.333,8,25,36.333,21.333,65.667c-8.667,5.667-68.333,42-68.333,42s4.666,6,14.333,12.334
				c9.667,6.333,35.333,21.999,39.333,29.999s7.668,17,4.334,25.667s-6.667,19.667-6.667,19.667s-0.334,9.333-17.667,8.333
				s-45-7.667-61-22.667c-3.666,4-4.334,13.484,1,22.742s22,33.258,23.667,34.925c0,3.333-2.333,11.333-1,16.333
				c-4.333,3.667-24,14.334-31,15.667s-15.667,0-24.667-9s-44.333-61-49.667-75c-4.667,4-54.333,54-76,59
				c-9.333,2-18.667,5.333-43.333-11c-1.667-3.666-2-19.666-1.333-22.666S86,200.562,95,194.896
				c-7.333-6.666-14.667-15.666-42.333-18.666s-39.333-5-52.667-15c0.333-9,8-33,26.667-44.667s36.667-8.165,43.667-8.165
				s39.333-0.169,39.333-0.169S81.333,71.562,72,52.896c-4-7.667-7.667-17.667,3.333-28.333s29.333-26.666,39.333-24.333
				s19.667,10,28,24.667S183.132,100.694,189.132,115.027z"/>
		</g>
	</g>
</g>
</svg>
